<svg width="64" height="64" viewBox="0 0 64 64" fill="none" xmlns="http://www.w3.org/2000/svg">
<path d="M56 42.6712V21.3262C55.9991 20.6276 55.8153 19.9414 55.4669 19.3359C55.1184 18.7304 54.6174 18.2267 54.0137 17.875L35.0137 6.8175C34.0983 6.28456 33.058 6.00378 31.9988 6.00378C30.9395 6.00378 29.8992 6.28456 28.9837 6.8175L9.98625 17.875C9.38262 18.2267 8.88162 18.7304 8.53314 19.3359C8.18467 19.9414 8.00085 20.6276 8 21.3262V42.6712C8.00042 43.3703 8.18402 44.057 8.53252 44.663C8.88102 45.269 9.38225 45.7731 9.98625 46.125L28.9862 57.1825C29.9019 57.7147 30.9422 57.995 32.0013 57.995C33.0604 57.995 34.1006 57.7147 35.0163 57.1825L54.0163 46.125C54.6198 45.7728 55.1205 45.2685 55.4686 44.6626C55.8166 44.0566 55.9998 43.3701 56 42.6712Z" stroke="white" stroke-width="3" stroke-linecap="round" stroke-linejoin="round"/>
<path d="M8.625 19.2487L32 32.9987M32 32.9987L55.375 19.2487M32 32.9987V57.9987" stroke="white" stroke-width="3" stroke-linecap="round" stroke-linejoin="round"/>
<path d="M32 21C33.6569 21 35 20.1046 35 19C35 17.8954 33.6569 17 32 17C30.3431 17 29 17.8954 29 19C29 20.1046 30.3431 21 32 21Z" fill="white"/>
<path d="M26 40C27.1046 40 28 38.6569 28 37C28 35.3431 27.1046 34 26 34C24.8954 34 24 35.3431 24 37C24 38.6569 24.8954 40 26 40Z" fill="white"/>
<path d="M14 44C15.1046 44 16 42.6569 16 41C16 39.3431 15.1046 38 14 38C12.8954 38 12 39.3431 12 41C12 42.6569 12.8954 44 14 44Z" fill="white"/>
<path d="M38 40C39.1046 40 40 38.6569 40 37C40 35.3431 39.1046 34 38 34C36.8954 34 36 35.3431 36 37C36 38.6569 36.8954 40 38 40Z" fill="white"/>
<path d="M50 33C51.1046 33 52 31.6569 52 30C52 28.3431 51.1046 27 50 27C48.8954 27 48 28.3431 48 30C48 31.6569 48.8954 33 50 33Z" fill="white"/>
<path d="M38 51C39.1046 51 40 49.6569 40 48C40 46.3431 39.1046 45 38 45C36.8954 45 36 46.3431 36 48C36 49.6569 36.8954 51 38 51Z" fill="white"/>
<path d="M50 44C51.1046 44 52 42.6569 52 41C52 39.3431 51.1046 38 50 38C48.8954 38 48 39.3431 48 41C48 42.6569 48.8954 44 50 44Z" fill="white"/>
</svg>
