<svg width="28" height="14" viewBox="0 0 28 14" fill="none" xmlns="http://www.w3.org/2000/svg">
<path d="M1.04189 13.4319C0.174006 12.6743 0.174007 11.4461 1.04189 10.6886L12.6367 0.568145C13.5045 -0.189382 14.9116 -0.189382 15.7795 0.568145C16.6474 1.32567 16.6474 2.55387 15.7795 3.31139L4.18476 13.4319C3.31688 14.1894 1.90977 14.1894 1.04189 13.4319Z" fill="white"/>
<path d="M27.3491 13.4319C28.217 12.6743 28.217 11.4461 27.3491 10.6886L15.7543 0.568147C14.8864 -0.18938 13.4793 -0.189379 12.6114 0.568148C11.7436 1.32568 11.7436 2.55387 12.6114 3.3114L24.2062 13.4319C25.0741 14.1894 26.4812 14.1894 27.3491 13.4319Z" fill="white"/>
</svg>
