<svg width="66" height="66" viewBox="0 0 66 66" fill="none" xmlns="http://www.w3.org/2000/svg">
<path fill-rule="evenodd" clip-rule="evenodd" d="M33.0724 65.8063C43.7938 66.8547 52.8645 63.6339 60.3839 56.4738C62.1775 54.7658 63.748 52.8477 65.3864 50.9986C66.1098 50.1799 66.1586 49.5728 65.7158 48.9346C65.2766 48.3045 64.5428 48.1552 63.4935 48.4014C56.0856 50.134 48.7474 50.0175 41.7753 46.9312C30.5101 41.9434 24.1237 33.4378 22.5462 21.8608C21.6242 15.0862 23.4491 8.78248 27.1565 2.94474C27.2733 2.76262 27.3884 2.5805 27.5086 2.40001C27.927 1.76997 27.9392 1.13829 27.4337 0.559108C26.9247 -0.021713 26.2414 -0.125079 25.5216 0.134157C14.7758 3.99481 6.38136 10.3822 2.41074 20.7713C-2.56909 33.8004 0.191861 45.5432 10.4548 55.5353C15.4939 60.4427 21.72 63.5207 28.7758 65.0811C30.1911 65.3945 31.6396 65.5684 33.0724 65.8063ZM60.3891 52.1275C59.7372 52.8034 59.1673 53.422 58.5659 54.011C54.4838 58.0194 49.7636 61.0924 43.9123 62.236C33.909 64.1902 24.6814 62.2656 16.423 56.6772C4.59824 48.677 0.671197 35.4018 4.8841 22.9174C7.7479 14.4348 13.913 8.63481 22.236 4.71017C22.3074 4.67736 22.3981 4.679 22.473 4.66587C17.2213 16.8024 18.1311 28.4041 26.4384 38.9392C34.798 49.5417 46.4362 53.5106 60.3891 52.1275Z" fill="#FFFFFE"/>
</svg>
