<svg width="104" height="76" viewBox="0 0 104 76" fill="none" xmlns="http://www.w3.org/2000/svg">
<g filter="url(#filter0_i_25_16)">
<path fill-rule="evenodd" clip-rule="evenodd" d="M88.042 43.9209C86.9074 43.9209 85.7745 44.0421 84.6671 44.2829C81.1249 36.0432 72.8623 30.5458 63.9214 30.5458C52.7639 30.5458 43.4866 38.4434 41.6391 49.411C41.6137 49.411 41.5882 49.411 41.5609 49.411C34.2656 49.411 28.3305 55.3754 28.3305 62.7082C28.3305 70.0374 34.2656 76 41.5609 76H88.042C96.8411 76 104 68.8047 104 59.9604C104 51.1161 96.8411 43.9209 88.042 43.9209ZM100.791 59.9604C100.791 67.0326 95.0718 72.787 88.042 72.787H41.5609C36.0349 72.787 31.5399 68.2653 31.5399 62.7082C31.5399 57.1475 36.0349 52.624 41.5609 52.624C41.93 52.624 42.3337 52.6529 42.8301 52.7145L44.4612 52.9172L44.6249 51.2809C45.6304 41.2926 53.9276 33.7606 63.9214 33.7606C72.0968 33.7606 79.4357 38.9756 82.1832 46.7411L82.7015 48.2073L84.1798 47.7348C85.4363 47.3366 86.7346 47.1357 88.042 47.1357C95.0718 47.1357 100.791 52.8883 100.791 59.9604Z" fill="white"/>
<path fill-rule="evenodd" clip-rule="evenodd" d="M22.6026 23.3922C23.2372 24.1018 24.3392 24.1669 25.052 23.537C25.7666 22.9053 25.832 21.8083 25.1974 21.0987L15.0018 9.66777C14.3691 8.9582 13.2671 8.89303 12.5525 9.52477C11.8397 10.1547 11.7742 11.2516 12.407 11.963L22.6026 23.3922Z" fill="white"/>
<path fill-rule="evenodd" clip-rule="evenodd" d="M21.3843 51.661L10.1432 62.0729C9.44492 62.7209 9.40491 63.8178 10.0541 64.5147C10.705 65.2098 11.8088 65.2496 12.507 64.6016L23.7482 54.1897C24.4464 53.5435 24.4865 52.4448 23.8373 51.7497C23.1863 51.0546 22.0826 51.0148 21.3843 51.661Z" fill="white"/>
<path fill-rule="evenodd" clip-rule="evenodd" d="M66.5253 11.954C65.8743 11.2589 64.7706 11.2191 64.0723 11.8653L52.8312 22.2771C52.1329 22.9252 52.0929 24.0221 52.7439 24.719C53.393 25.4141 54.4968 25.4539 55.195 24.8059L66.4362 14.394C67.1344 13.7478 67.1744 12.6491 66.5253 11.954Z" fill="white"/>
<path fill-rule="evenodd" clip-rule="evenodd" d="M39.9571 18.6877C40.9081 18.7619 41.7464 18.0469 41.8209 17.1002L43.0192 1.86249C43.0938 0.915789 42.3755 0.079509 41.4245 0.00529367C40.4735 -0.0689217 39.6334 0.64608 39.5589 1.59278L38.3624 16.8305C38.2879 17.779 39.0043 18.6134 39.9571 18.6877Z" fill="white"/>
<path fill-rule="evenodd" clip-rule="evenodd" d="M18.7513 36.6405C18.8386 35.6956 18.1331 34.8503 17.1839 34.7616L1.89506 33.3461C0.944052 33.2592 0.0948746 33.9597 0.007593 34.9064C-0.081507 35.8531 0.624019 36.6984 1.57321 36.7853L16.862 38.2009C17.813 38.2896 18.6622 37.5872 18.7513 36.6405Z" fill="white"/>
<path fill-rule="evenodd" clip-rule="evenodd" d="M25.3284 37.1962C25.9593 30.1983 32.1909 25.0159 39.2207 25.644C42.772 25.9626 45.8541 27.7039 47.9561 30.2508C48.7216 29.5014 49.5563 28.7882 50.4618 28.1329C47.8197 24.9543 43.9575 22.7822 39.5134 22.3857C30.6798 21.5965 22.8481 28.1094 22.0553 36.903C21.5425 42.5868 24.1028 47.8398 28.3559 51.0673C28.836 50.2455 29.4833 49.3476 30.3434 48.4679C26.9594 45.8993 24.921 41.7179 25.3284 37.1962Z" fill="white"/>
</g>
<defs>
<filter id="filter0_i_25_16" x="0" y="0" width="104" height="77" filterUnits="userSpaceOnUse" color-interpolation-filters="sRGB">
<feFlood flood-opacity="0" result="BackgroundImageFix"/>
<feBlend mode="normal" in="SourceGraphic" in2="BackgroundImageFix" result="shape"/>
<feColorMatrix in="SourceAlpha" type="matrix" values="0 0 0 0 0 0 0 0 0 0 0 0 0 0 0 0 0 0 127 0" result="hardAlpha"/>
<feOffset dy="1"/>
<feGaussianBlur stdDeviation="1.5"/>
<feComposite in2="hardAlpha" operator="arithmetic" k2="-1" k3="1"/>
<feColorMatrix type="matrix" values="0 0 0 0 0 0 0 0 0 0 0 0 0 0 0 0 0 0 0.5 0"/>
<feBlend mode="normal" in2="shape" result="effect1_innerShadow_25_16"/>
</filter>
</defs>
</svg>
