<svg width="95" height="47" viewBox="0 0 95 47" fill="none" xmlns="http://www.w3.org/2000/svg">
<g filter="url(#filter0_i_25_19)">
<path fill-rule="evenodd" clip-rule="evenodd" d="M77.5281 33.0146H84.1595C88.4825 33.0146 91.999 29.4807 91.999 25.1362C91.999 20.7902 88.4825 17.2549 84.1595 17.2549C83.8715 17.2549 83.5554 17.2784 83.167 17.3254L81.891 17.484L81.7639 16.2062C80.9753 8.39831 74.4857 2.51156 66.6654 2.51156C63.2699 2.51156 60.065 3.67041 57.4774 5.65616C56.9191 5.02459 56.3343 4.42681 55.7169 3.87016C58.7889 1.43203 62.6363 0 66.6654 0C75.3954 0 82.653 6.17169 84.0975 14.7448C84.1182 14.7448 84.1388 14.7448 84.1595 14.7448C89.8663 14.7448 94.5098 19.4066 94.5098 25.1362C94.5098 30.8643 89.8663 35.5261 84.1595 35.5261H77.469C77.5281 35.0062 77.5695 34.4789 77.5695 33.9413C77.5695 33.6285 77.5488 33.3215 77.5281 33.0146Z" fill="white"/>
<path fill-rule="evenodd" clip-rule="evenodd" d="M15.648 14.7697C16.7616 14.7697 17.8722 14.8887 18.9578 15.1252C22.43 7.05294 30.5324 1.6685 39.2994 1.6685C50.239 1.6685 59.3369 9.40441 61.1476 20.1483C61.1742 20.1483 61.1993 20.1483 61.2244 20.1483C68.3786 20.1483 74.1977 25.991 74.1977 33.1717C74.1977 40.3524 68.3786 46.1937 61.2244 46.1937H15.648C7.01982 46.1937 0 39.1451 0 30.4824C0 21.8183 7.01982 14.7697 15.648 14.7697ZM3.14732 30.4824C3.14732 37.4105 8.7552 43.0461 15.648 43.0461H61.2244C66.6432 43.0461 71.0518 38.6178 71.0518 33.1717C71.0518 27.7256 66.6432 23.2958 61.2244 23.2958C60.864 23.2958 60.4682 23.3238 59.9808 23.384L58.3828 23.5823L58.2218 21.9798C57.2337 12.195 49.0988 4.81603 39.2994 4.81603C31.2827 4.81603 24.0871 9.92728 21.3932 17.5325L20.8852 18.9689L19.4348 18.5063C18.2031 18.1156 16.93 17.9188 15.648 17.9188C8.7552 17.9188 3.14732 23.5543 3.14732 30.4824Z" fill="white"/>
</g>
<defs>
<filter id="filter0_i_25_19" x="0" y="0" width="94.5098" height="47.1937" filterUnits="userSpaceOnUse" color-interpolation-filters="sRGB">
<feFlood flood-opacity="0" result="BackgroundImageFix"/>
<feBlend mode="normal" in="SourceGraphic" in2="BackgroundImageFix" result="shape"/>
<feColorMatrix in="SourceAlpha" type="matrix" values="0 0 0 0 0 0 0 0 0 0 0 0 0 0 0 0 0 0 127 0" result="hardAlpha"/>
<feOffset dy="1"/>
<feGaussianBlur stdDeviation="1.5"/>
<feComposite in2="hardAlpha" operator="arithmetic" k2="-1" k3="1"/>
<feColorMatrix type="matrix" values="0 0 0 0 0 0 0 0 0 0 0 0 0 0 0 0 0 0 0.5 0"/>
<feBlend mode="normal" in2="shape" result="effect1_innerShadow_25_19"/>
</filter>
</defs>
</svg>
