<svg width="76" height="83" viewBox="0 0 76 83" fill="none" xmlns="http://www.w3.org/2000/svg">
<g filter="url(#filter0_i_25_18)">
<path fill-rule="evenodd" clip-rule="evenodd" d="M59.7036 13.3644C58.5693 13.3644 57.4363 13.4848 56.3287 13.7256C52.7876 5.4922 44.5261 0 35.5863 0C24.4312 0 15.1536 7.8918 13.307 18.8496C13.2803 18.8496 13.255 18.8496 13.2282 18.8496C5.93504 18.8496 0 24.8094 0 32.1342C0 39.4576 5.93504 45.416 13.2282 45.416H59.7036C68.5013 45.416 75.6594 38.227 75.6594 29.3902C75.6594 20.5534 68.5013 13.3644 59.7036 13.3644ZM72.4505 29.3902C72.4505 36.4574 66.7322 42.2058 59.7036 42.2058H13.2282C7.70415 42.2058 3.20889 37.688 3.20889 32.1342C3.20889 26.579 7.70415 22.0598 13.2282 22.0598C13.597 22.0598 14.0009 22.0878 14.4963 22.1494L16.1275 22.3524L16.2907 20.7172C17.2984 10.738 25.5937 3.2116 35.5863 3.2116C43.7605 3.2116 51.0987 8.4238 53.8446 16.1826L54.3639 17.647L55.8431 17.1752C57.0985 16.7762 58.3961 16.5746 59.7036 16.5746C66.7322 16.5746 72.4505 22.323 72.4505 29.3902Z" fill="white"/>
<path fill-rule="evenodd" clip-rule="evenodd" d="M13.4534 54.2542C14.8045 56.7084 16.1556 59.1626 17.5067 61.6168C18.4483 63.3248 21.0745 61.8002 20.133 60.0894C18.7819 57.6352 17.4293 55.1824 16.0782 52.7282C15.1381 51.0202 12.5104 52.5448 13.4534 54.2542Z" fill="white"/>
<path fill-rule="evenodd" clip-rule="evenodd" d="M59.6501 54.2542C61.0013 56.7084 62.3524 59.1626 63.7049 61.6168C64.645 63.3248 67.2713 61.8002 66.3297 60.0894C64.9786 57.6352 63.6275 55.1824 62.275 52.7282C61.3348 51.0202 58.7086 52.5448 59.6501 54.2542Z" fill="white"/>
<path fill-rule="evenodd" clip-rule="evenodd" d="M56.2555 62.3378C57.608 64.792 58.9591 67.2462 60.3102 69.699C61.2518 71.407 63.878 69.8824 62.9364 68.173C61.5853 65.7188 60.2342 63.2646 58.8817 60.8118C57.9416 59.1038 55.3139 60.6284 56.2555 62.3378Z" fill="white"/>
<path fill-rule="evenodd" clip-rule="evenodd" d="M2.84859 53.158C4.20111 55.6108 5.55222 58.065 6.90333 60.5192C7.84489 62.2272 10.4711 60.7026 9.52956 58.9918C8.17844 56.539 6.82593 54.0848 5.47481 51.6306C4.53467 49.9226 1.90704 51.4472 2.84859 53.158Z" fill="white"/>
<path fill-rule="evenodd" clip-rule="evenodd" d="M13.4534 64.638C14.8045 67.0908 16.1556 69.545 17.5067 71.9992C18.4483 73.7072 21.0745 72.1826 20.133 70.4718C18.7819 68.019 17.4293 65.5648 16.0782 63.1106C15.1381 61.4026 12.5104 62.9272 13.4534 64.638Z" fill="white"/>
<path fill-rule="evenodd" clip-rule="evenodd" d="M49.2001 64.54H44.3038C43.655 64.54 43.0526 64.8606 42.6923 65.3982C42.332 65.9358 42.2659 66.6134 42.5164 67.2112L47.113 78.1494L28.3916 58.401H33.0783C33.7848 58.401 34.435 58.0174 34.7756 57.4014C35.1162 56.784 35.0923 56.0322 34.7123 55.4386L30.0819 48.1992H27.1996L32.1747 55.9804H27.2446C26.4691 55.9804 25.771 56.4368 25.4642 57.1438C25.1588 57.8508 25.3038 58.6698 25.8344 59.2298L47.2101 81.7782C47.5929 82.1828 48.0982 82.3914 48.6119 82.3914C48.9764 82.3914 49.3437 82.2864 49.673 82.0736C50.4724 81.5584 50.775 80.5882 50.4077 79.7132L45.0483 66.9592H49.9813C50.6484 66.9592 51.2606 66.6246 51.6181 66.0646C51.9741 65.5032 52.0178 64.8102 51.7349 64.2138L44.1757 48.1992H41.4876L49.2001 64.54Z" fill="white"/>
</g>
<defs>
<filter id="filter0_i_25_18" x="0" y="0" width="75.6592" height="83.3914" filterUnits="userSpaceOnUse" color-interpolation-filters="sRGB">
<feFlood flood-opacity="0" result="BackgroundImageFix"/>
<feBlend mode="normal" in="SourceGraphic" in2="BackgroundImageFix" result="shape"/>
<feColorMatrix in="SourceAlpha" type="matrix" values="0 0 0 0 0 0 0 0 0 0 0 0 0 0 0 0 0 0 127 0" result="hardAlpha"/>
<feOffset dy="1"/>
<feGaussianBlur stdDeviation="1.5"/>
<feComposite in2="hardAlpha" operator="arithmetic" k2="-1" k3="1"/>
<feColorMatrix type="matrix" values="0 0 0 0 0 0 0 0 0 0 0 0 0 0 0 0 0 0 0.5 0"/>
<feBlend mode="normal" in2="shape" result="effect1_innerShadow_25_18"/>
</filter>
</defs>
</svg>
