<svg width="76" height="71" viewBox="0 0 76 71" fill="none" xmlns="http://www.w3.org/2000/svg">
<g filter="url(#filter0_i_25_14)">
<path fill-rule="evenodd" clip-rule="evenodd" d="M59.9726 13.3528C58.8322 13.3528 57.6947 13.473 56.5808 13.7134C53.0246 5.4871 44.7258 0 35.7457 0C24.5409 0 15.2216 7.88331 13.3672 18.8341C13.3406 18.8326 13.3139 18.8326 13.2887 18.8326C5.96157 18.8326 0 24.7887 0 32.1078C0 39.4254 5.96157 45.3785 13.2887 45.3785H59.9726C68.8091 45.3785 76 38.1943 76 29.3657C76 20.5356 68.8091 13.3528 59.9726 13.3528ZM72.7756 29.3657C72.7756 36.4268 67.0332 42.1704 59.9726 42.1704H13.2887C7.73893 42.1704 3.22295 37.6564 3.22295 32.1078C3.22295 26.5562 7.73893 22.0407 13.2887 22.0407C13.659 22.0407 14.0634 22.07 14.5625 22.1301L16.1992 22.3339L16.3651 20.6997C17.3752 10.728 25.7081 3.20814 35.7457 3.20814C43.9586 3.20814 51.3287 8.41678 54.0866 16.1682L54.608 17.6308L56.0935 17.1604C57.354 16.7617 58.6589 16.561 59.9726 16.561C67.0332 16.561 72.7756 22.3045 72.7756 29.3657Z" fill="white"/>
<path fill-rule="evenodd" clip-rule="evenodd" d="M13.5139 54.21C14.8706 56.6619 16.2288 59.1138 17.5855 61.5658C18.5305 63.2717 21.1699 61.7489 20.2234 60.0401C18.8652 57.5882 17.5085 55.1363 16.1503 52.6844C15.2053 50.9785 12.5674 52.5027 13.5139 54.21Z" fill="white"/>
<path fill-rule="evenodd" clip-rule="evenodd" d="M28.6437 54.21C30.0019 56.6619 31.3601 59.1138 32.7168 61.5658C33.6618 63.2717 36.3011 61.7489 35.3547 60.0401C33.9965 57.5882 32.6398 55.1363 31.2816 52.6844C30.3366 50.9785 27.6987 52.5027 28.6437 54.21Z" fill="white"/>
<path fill-rule="evenodd" clip-rule="evenodd" d="M44.5481 54.21C45.9063 56.6619 47.263 59.1138 48.6212 61.5658C49.5662 63.2717 52.2041 61.7489 51.2591 60.0401C49.9009 57.5882 48.5427 55.1363 47.186 52.6844C46.241 50.9785 43.6017 52.5027 44.5481 54.21Z" fill="white"/>
<path fill-rule="evenodd" clip-rule="evenodd" d="M59.9178 54.21C61.276 56.6619 62.6328 59.1138 63.991 61.5658C64.9359 63.2717 67.5738 61.7489 66.6289 60.0401C65.2707 57.5882 63.9125 55.1363 62.5557 52.6844C61.6108 50.9785 58.9714 52.5027 59.9178 54.21Z" fill="white"/>
<path fill-rule="evenodd" clip-rule="evenodd" d="M25.948 62.898C27.3047 65.3499 28.6629 67.8018 30.0196 70.2537C30.9646 71.9596 33.604 70.4369 32.6575 68.728C31.3008 66.2761 29.9426 63.8242 28.5844 61.3723C27.6409 59.6664 25.0016 61.1891 25.948 62.898Z" fill="white"/>
<path fill-rule="evenodd" clip-rule="evenodd" d="M41.0763 62.8936C42.4345 65.3455 43.7912 67.7974 45.1494 70.2493C46.0944 71.9567 48.7323 70.4325 47.7873 68.7236C46.4291 66.2717 45.0709 63.8198 43.7142 61.3679C42.7693 59.662 40.1299 61.1862 41.0763 62.8936Z" fill="white"/>
<path fill-rule="evenodd" clip-rule="evenodd" d="M56.5097 62.2868C57.8665 64.7387 59.2247 67.1906 60.5814 69.6425C61.5264 71.3484 64.1657 69.8257 63.2193 68.1169C61.8611 65.665 60.5044 63.2131 59.1462 60.7612C58.2012 59.0552 55.5633 60.578 56.5097 62.2868Z" fill="white"/>
</g>
<defs>
<filter id="filter0_i_25_14" x="0" y="0" width="76" height="72" filterUnits="userSpaceOnUse" color-interpolation-filters="sRGB">
<feFlood flood-opacity="0" result="BackgroundImageFix"/>
<feBlend mode="normal" in="SourceGraphic" in2="BackgroundImageFix" result="shape"/>
<feColorMatrix in="SourceAlpha" type="matrix" values="0 0 0 0 0 0 0 0 0 0 0 0 0 0 0 0 0 0 127 0" result="hardAlpha"/>
<feOffset dy="1"/>
<feGaussianBlur stdDeviation="1.5"/>
<feComposite in2="hardAlpha" operator="arithmetic" k2="-1" k3="1"/>
<feColorMatrix type="matrix" values="0 0 0 0 0 0 0 0 0 0 0 0 0 0 0 0 0 0 0.5 0"/>
<feBlend mode="normal" in2="shape" result="effect1_innerShadow_25_14"/>
</filter>
</defs>
</svg>
