<svg width="54" height="49" viewBox="0 0 54 49" fill="none"  xmlns="http://www.w3.org/2000/svg">
<path d="M52.1162 12.5641H37.0465C36.0167 12.5641 35.1628 11.7097 35.1628 10.6795C35.1628 9.64923 36.0167 8.79487 37.0465 8.79487H52.1162C53.146 8.79487 53.9999 9.64923 53.9999 10.6795C53.9999 11.7097 53.146 12.5641 52.1162 12.5641Z" fill="white"/>
<path d="M11.9302 12.5641H1.88372C0.853951 12.5641 0 11.7097 0 10.6795C0 9.64923 0.853951 8.79487 1.88372 8.79487H11.9302C12.96 8.79487 13.8139 9.64923 13.8139 10.6795C13.8139 11.7097 12.96 12.5641 11.9302 12.5641Z" fill="white"/>
<path d="M21.9765 21.359C16.0993 21.359 11.3022 16.5595 11.3022 10.6795C11.3022 4.79949 16.0993 0 21.9765 0C27.8537 0 32.6509 4.79949 32.6509 10.6795C32.6509 16.5595 27.8537 21.359 21.9765 21.359ZM21.9765 3.76923C18.1589 3.76923 15.0696 6.86 15.0696 10.6795C15.0696 14.499 18.1589 17.5897 21.9765 17.5897C25.7942 17.5897 28.8835 14.499 28.8835 10.6795C28.8835 6.86 25.7942 3.76923 21.9765 3.76923Z" fill="white"/>
<path d="M52.1163 40.2051H42.0698C41.04 40.2051 40.1861 39.3508 40.1861 38.3205C40.1861 37.2903 41.04 36.4359 42.0698 36.4359H52.1163C53.146 36.4359 54 37.2903 54 38.3205C54 39.3508 53.146 40.2051 52.1163 40.2051Z" fill="white"/>
<path d="M16.9534 40.2051H1.88372C0.853951 40.2051 0 39.3508 0 38.3205C0 37.2903 0.853951 36.4359 1.88372 36.4359H16.9534C17.9832 36.4359 18.8372 37.2903 18.8372 38.3205C18.8372 39.3508 17.9832 40.2051 16.9534 40.2051Z" fill="white"/>
<path d="M32.0232 49C26.146 49 21.3488 44.2005 21.3488 38.3205C21.3488 32.4405 26.146 27.641 32.0232 27.641C37.9003 27.641 42.6975 32.4405 42.6975 38.3205C42.6975 44.2005 37.9003 49 32.0232 49ZM32.0232 31.4103C28.2055 31.4103 25.1162 34.501 25.1162 38.3205C25.1162 42.14 28.2055 45.2308 32.0232 45.2308C35.8408 45.2308 38.9301 42.14 38.9301 38.3205C38.9301 34.501 35.8408 31.4103 32.0232 31.4103Z" fill="white"/>
</svg>
