<svg width="77" height="75" viewBox="0 0 77 75" fill="none" xmlns="http://www.w3.org/2000/svg">
<g filter="url(#filter0_i_25_17)">
<path fill-rule="evenodd" clip-rule="evenodd" d="M63.9311 63.0917L52.7951 52.8801C52.1041 52.2471 52.0695 51.1755 52.7209 50.5007C53.3724 49.8275 54.4725 49.7954 55.1652 50.43L66.3011 60.64C66.9922 61.2746 67.0251 62.3446 66.3737 63.0194C65.7239 63.6942 64.6238 63.7263 63.9311 63.0917Z" fill="#FFFFFE"/>
<path fill-rule="evenodd" clip-rule="evenodd" d="M21.3862 24.3338L10.2503 14.1238C9.55759 13.4892 9.52461 12.4192 10.1761 11.7444C10.8275 11.0697 11.926 11.0375 12.6187 11.6721L23.7546 21.8838C24.4473 22.5184 24.4803 23.5884 23.8288 24.2631C23.1774 24.9363 22.0773 24.9684 21.3862 24.3338Z" fill="#FFFFFE"/>
<path fill-rule="evenodd" clip-rule="evenodd" d="M12.4851 62.9648L22.7057 51.8824C23.3406 51.1947 24.4391 51.1369 25.1466 51.7554C25.8541 52.374 25.9119 53.444 25.2769 54.1332L15.0563 65.2156C14.4213 65.9032 13.3229 65.9611 12.617 65.3425C11.9095 64.724 11.8501 63.654 12.4851 62.9648Z" fill="#FFFFFE"/>
<path fill-rule="evenodd" clip-rule="evenodd" d="M51.2729 20.6306L61.4934 9.54821C62.1284 8.86058 63.2268 8.80274 63.9344 9.42128C64.6403 10.0398 64.6997 11.1098 64.0647 11.7991L53.8441 22.8815C53.2091 23.5691 52.1107 23.6269 51.4031 23.0084C50.6973 22.3898 50.6379 21.3198 51.2729 20.6306Z" fill="#FFFFFE"/>
<path fill-rule="evenodd" clip-rule="evenodd" d="M37.287 73.3354L37.1121 58.4389C37.1022 57.5135 37.8708 56.7472 38.8208 56.7375C39.7708 56.7263 40.5575 57.475 40.569 58.4004L40.7438 73.2969C40.7537 74.2239 39.9852 74.9886 39.0352 74.9999C38.0852 75.0111 37.2985 74.2624 37.287 73.3354Z" fill="#FFFFFE"/>
<path fill-rule="evenodd" clip-rule="evenodd" d="M36.4326 16.5996L36.2578 1.70313C36.2463 0.776117 37.0148 0.0113713 37.9648 0.000125063C38.9148 -0.0111212 39.7015 0.737559 39.713 1.66457L39.8879 16.5611C39.8994 17.4865 39.1292 18.2528 38.1792 18.2625C37.2292 18.2737 36.4425 17.525 36.4326 16.5996Z" fill="#FFFFFE"/>
<path fill-rule="evenodd" clip-rule="evenodd" d="M1.7334 35.7938L17.0272 35.842C17.9772 35.8452 18.7523 36.6051 18.749 37.5305C18.7474 38.4559 17.9673 39.211 17.0156 39.2078L1.72351 39.1612C0.771874 39.158 -0.00328807 38.3981 1.04885e-05 37.4727C0.00330905 36.5457 0.783419 35.7906 1.7334 35.7938Z" fill="#FFFFFE"/>
<path fill-rule="evenodd" clip-rule="evenodd" d="M59.9844 35.7922L75.2781 35.8388C76.2281 35.842 77.0033 36.6019 77 37.5273C76.9967 38.4543 76.2166 39.2094 75.2666 39.2062L59.9728 39.158C59.0228 39.1548 58.2477 38.3949 58.251 37.4695C58.2543 36.5441 59.0344 35.789 59.9844 35.7922Z" fill="#FFFFFE"/>
<path fill-rule="evenodd" clip-rule="evenodd" d="M38.072 21.8918C29.2385 21.8918 22.0509 28.8934 22.0509 37.4984C22.0509 46.105 29.2385 53.1066 38.072 53.1066C46.9072 53.1066 54.0948 46.105 54.0948 37.4984C54.0948 28.8934 46.9072 21.8918 38.072 21.8918ZM50.821 37.4984C50.821 44.3458 45.1012 49.9175 38.072 49.9175C31.0428 49.9175 25.3247 44.3458 25.3247 37.4984C25.3247 30.651 31.0428 25.0793 38.072 25.0793C45.1012 25.0793 50.821 30.651 50.821 37.4984Z" fill="#FFFFFE"/>
</g>
<defs>
<filter id="filter0_i_25_17" x="0" y="0" width="77" height="76" filterUnits="userSpaceOnUse" color-interpolation-filters="sRGB">
<feFlood flood-opacity="0" result="BackgroundImageFix"/>
<feBlend mode="normal" in="SourceGraphic" in2="BackgroundImageFix" result="shape"/>
<feColorMatrix in="SourceAlpha" type="matrix" values="0 0 0 0 0 0 0 0 0 0 0 0 0 0 0 0 0 0 127 0" result="hardAlpha"/>
<feOffset dy="1"/>
<feGaussianBlur stdDeviation="1.5"/>
<feComposite in2="hardAlpha" operator="arithmetic" k2="-1" k3="1"/>
<feColorMatrix type="matrix" values="0 0 0 0 0 0 0 0 0 0 0 0 0 0 0 0 0 0 0.5 0"/>
<feBlend mode="normal" in2="shape" result="effect1_innerShadow_25_17"/>
</filter>
</defs>
</svg>
